<svg width="160" height="48" viewBox="0 0 160 48" fill="none" xmlns="http://www.w3.org/2000/svg" role="img" aria-labelledby="title">
  <title id="title">PulmOx Costa Rica</title>
  <rect width="48" height="48" rx="24" fill="#006CFF"/>
  <path d="M14 31V16h10.2c4.7 0 7.8 3 7.8 7.4 0 4.5-3.2 7.6-7.9 7.6H14Zm5.1-4.2h4.7c1.9 0 3.1-1.3 3.1-3.3 0-1.9-1.2-3.2-3.1-3.2h-4.7v6.5Z" fill="white"/>
  <path d="M58 17.5h8.7c4.5 0 7.4 2.8 7.4 7.1 0 4.4-3 7.2-7.5 7.2h-3.9V37H58V17.5Zm8.1 10.2c2.1 0 3.3-1.1 3.3-3.1 0-1.9-1.2-3-3.3-3h-3.4v6.1h3.4ZM76.8 37V22.1h4.4v2.1c1-1.6 2.5-2.4 4.4-2.4 3.4 0 5.5 2.2 5.5 5.9V37h-4.5v-8.5c0-1.8-1-2.9-2.7-2.9-1.6 0-2.7 1.2-2.7 3V37h-4.4ZM101.1 37.3c-4.5 0-7.8-3.3-7.8-7.8 0-4.4 3.3-7.7 7.8-7.7s7.8 3.3 7.8 7.7c0 4.5-3.3 7.8-7.8 7.8Zm0-3.8c2 0 3.3-1.6 3.3-4 0-2.3-1.3-3.9-3.3-3.9s-3.3 1.6-3.3 3.9c0 2.4 1.3 4 3.3 4ZM111.3 37V17.5h4.5V37h-4.5ZM118.9 37V22.1h4.5V37h-4.5Zm-.2-17.1c0-1.4 1.1-2.5 2.5-2.5s2.5 1.1 2.5 2.5-1.1 2.5-2.5 2.5-2.5-1.1-2.5-2.5ZM126.7 37V22.1h4.3v2c1-1.5 2.3-2.3 4.2-2.3 2.1 0 3.7.9 4.6 2.6 1.1-1.7 2.8-2.6 5-2.6 3.2 0 5.2 2.1 5.2 5.6V37h-4.5v-8.8c0-1.6-.8-2.6-2.3-2.6s-2.5 1.1-2.5 2.8V37h-4.5v-8.8c0-1.6-.8-2.6-2.3-2.6-1.5 0-2.6 1.1-2.6 2.8V37h-4.6Z" fill="#081323"/>
</svg>
